<svg width="16" height="16" viewBox="0 0 16 16" fill="none" xmlns="http://www.w3.org/2000/svg">
<path fill-rule="evenodd" clip-rule="evenodd" d="M8.00009 10.122L13.3031 15.425C13.5845 15.7064 13.9661 15.8645 14.3641 15.8645C14.762 15.8645 15.1437 15.7064 15.4251 15.425C15.7065 15.1436 15.8646 14.7619 15.8646 14.364C15.8646 13.966 15.7065 13.5844 15.4251 13.303L10.1201 7.99999L15.4241 2.69699C15.5634 2.55766 15.6738 2.39226 15.7492 2.21024C15.8245 2.02821 15.8633 1.83313 15.8632 1.63613C15.8632 1.43914 15.8243 1.24407 15.7489 1.06209C15.6735 0.880101 15.5629 0.714755 15.4236 0.575488C15.2843 0.436221 15.1189 0.325762 14.9368 0.250416C14.7548 0.175071 14.5597 0.136315 14.3627 0.136361C14.1657 0.136408 13.9707 0.175255 13.7887 0.250687C13.6067 0.326118 13.4414 0.436656 13.3021 0.575988L8.00009 5.87899L2.69709 0.575988C2.55879 0.432659 2.39333 0.318309 2.21036 0.239611C2.02739 0.160912 1.83058 0.119441 1.63141 0.117617C1.43224 0.115793 1.23471 0.153652 1.05033 0.228987C0.86595 0.304321 0.698421 0.415622 0.557516 0.556394C0.416611 0.697166 0.305153 0.864591 0.229644 1.0489C0.154136 1.23321 0.11609 1.43071 0.117726 1.62988C0.119363 1.82905 0.160648 2.02589 0.239174 2.20894C0.3177 2.39198 0.431894 2.55755 0.575092 2.69599L5.88009 7.99999L0.576093 13.304C0.432894 13.4424 0.3187 13.608 0.240174 13.791C0.161648 13.9741 0.120363 14.1709 0.118726 14.3701C0.11709 14.5693 0.155136 14.7668 0.230644 14.9511C0.306153 15.1354 0.417611 15.3028 0.558516 15.4436C0.69942 15.5844 0.86695 15.6957 1.05133 15.771C1.23571 15.8463 1.43324 15.8842 1.63241 15.8824C1.83158 15.8805 2.02839 15.8391 2.21136 15.7604C2.39433 15.6817 2.55979 15.5673 2.69809 15.424L8.00009 10.122Z" fill="#6D6D6D"/>
</svg>
